<?xml version="1.0" encoding="utf-8"?>
<!-- Generator: Adobe Illustrator 19.0.0, SVG Export Plug-In . SVG Version: 6.00 Build 0)  -->
<svg version="1.1" id="Layer_1" xmlns="http://www.w3.org/2000/svg" xmlns:xlink="http://www.w3.org/1999/xlink" x="0px" y="0px"
	 viewBox="0 0 500 500" style="enable-background:new 0 0 500 500;" xml:space="preserve">
<style type="text/css">
	.st0{fill:#D34A47;}
	.st1{fill:#FFFFFF;}
</style>
<g id="XMLID_21_">
	<path id="XMLID_23_" class="st0" d="M294.6,421.5l3.5-58.4l9.7-16.5c0,0-22,9-58.9,9c-36.8,0-58.5-8.8-58.5-8.8l10.8,18l3.8,56.7
		c0,6.1,20,11,44.8,11C274.6,432.5,294.6,427.6,294.6,421.5"/>
	<path id="XMLID_27_" class="st0" d="M283.6,149l7.4-29.1l40.7-42.8L320.9,68l-43.1,45.6l-8.5,34.7c-6.2-0.2-12.6-0.3-19.3-0.3
		c-45.4,0-82.2,5.2-82.2,11.6c0,6.4,36.8,11.6,82.2,11.6c45.4,0,82.2-5.2,82.2-11.6C332.2,154.8,312.2,150.8,283.6,149"/>
	<path id="XMLID_28_" class="st1" d="M279.3,165.3c0,0-1.6,0.4-6.3,0.4c-4.7,0-8,0-9.3-1.2c-0.4-0.3-0.6-1-0.5-1.4
		c0-0.8,0.6-1.3,1.3-1.6l0.7,1.1c-0.3,0.1-0.5,0.2-0.5,0.4c0,0.6,4.8,1.1,8.5,1c3.7,0,8.1-0.3,8.1-1c0-0.2-0.3-0.4-0.9-0.5l0.7-1.1
		c0.9,0.3,1.8,0.9,1.8,1.9C282.8,164.8,280.7,165.1,279.3,165.3"/>
	<path id="XMLID_29_" class="st0" d="M331.6,77.2c1-1.2-0.5-4.2-3.5-6.8c-2.9-2.5-6.2-3.7-7.2-2.5c-1,1.2,0.5,4.2,3.5,6.8
		C327.3,77.3,330.5,78.4,331.6,77.2"/>
	<path id="XMLID_30_" class="st0" d="M292.7,279c-1-9.3,20.3-22.7,14.8-23.2c-11.7,0.7-17.6,13.8-23.5,27.5
		c-2.2,5-9.6,26.5-14.4,23.8c-4.9-2.6,6.3-20.3,9.4-30.7c-3.6,2.6-16.8,12.9-20.3,3.3c-5.5,4.7-17.2,7.2-15.9-5.1
		c-2.9,5.2-9.5,12.4-17.3,9.4c-10.3-3.9,6-36.8,10-35.2c4.1,1.7-0.8,9.1-2.1,12.1c-2.8,6.4-6,14.4-3.9,16.1c3.7,2.8,13.8-10.7,14-11
		c1.9-2.5,7.3-18.8,11.6-16.9c4.3,1.9-10.8,23.4-5.2,27.7c1.1,0.9,5.8-0.5,8.7-3.6c1.8-2,1.2-6.4,7.3-21
		c6.1-14.6,11.6-32.8,15.8-31.5c4.2,1.4,0.7,10.7-0.8,14.2c-7.1,16.4-19.3,43.4-13.6,41.3c5.8-2,8.8-2.2,14.4-8.8
		c5.7-6.6,5.4-17.5,9.2-17.3c3.8,0.2,3.1,3.7,2.2,6.4c3.7-4.2,17.6-13.2,20.9-4.3c4,10.5-19.9,25.6-13.9,24.9
		c5.8-0.8,15.2-6.7,19.2-12.1l11-99.1c0,0-11.1,9.2-81.7,9.2c-70.6,0-80.5-9-80.5-9l9.4,90.5c5-14.2,16.8-42.8,35.5-41.8
		c8.5,0.4,19.8,16.8,10.1,17.3c-4.1,0.2-4.5-8.2-9.4-9.4c-3.5-0.9-8.4,2-11.6,5.1c-6.3,6.2-19.8,30.5-18,42.6
		c2.3,15.5,21.3-5.4,24.5-11.6c2.3-4.4,3.8-17.3,8.8-15.9c5,1.4-0.4,14.7-4,26.4c-4,13.2-6.2,27.2-11.2,25.6
		c-5.1-1.6,3.2-18.7,2.9-21.7c-4.8,4.4-13.5,15.5-24.8,10l5.8,56.2c0,0,15.5,12.2,62.2,12.2s62.7-12.1,62.7-12.1l7.2-65.1
		C312.6,280.3,293.9,290.5,292.7,279"/>
</g>
</svg>
